<?xml version="1.0" encoding="UTF-8" standalone="no"?>
<!-- Created with Inkscape (http://www.inkscape.org/) -->

<svg
   xmlns:dc="http://purl.org/dc/elements/1.1/"
   xmlns:cc="http://creativecommons.org/ns#"
   xmlns:rdf="http://www.w3.org/1999/02/22-rdf-syntax-ns#"
   xmlns:svg="http://www.w3.org/2000/svg"
   xmlns="http://www.w3.org/2000/svg"
   xmlns:sodipodi="http://sodipodi.sourceforge.net/DTD/sodipodi-0.dtd"
   xmlns:inkscape="http://www.inkscape.org/namespaces/inkscape"
   width="588"
   height="396"
   id="svg2"
   version="1.1"
   inkscape:version="0.48.5 r10040"
   sodipodi:docname="NÖ ABB ohne Schrift.svg">
  <defs
     id="defs4" />
  <sodipodi:namedview
     id="base"
     pagecolor="#ffffff"
     bordercolor="#666666"
     borderopacity="1.0"
     inkscape:pageopacity="0.0"
     inkscape:pageshadow="2"
     inkscape:zoom="0.97968464"
     inkscape:cx="96.794302"
     inkscape:cy="347.13812"
     inkscape:document-units="px"
     inkscape:current-layer="layer1"
     showgrid="false"
     inkscape:window-width="1920"
     inkscape:window-height="1012"
     inkscape:window-x="1272"
     inkscape:window-y="38"
     inkscape:window-maximized="1" />
  <metadata
     id="metadata7">
    <rdf:RDF>
      <cc:Work
         rdf:about="">
        <dc:format>image/svg+xml</dc:format>
        <dc:type
           rdf:resource="http://purl.org/dc/dcmitype/StillImage" />
        <dc:title />
      </cc:Work>
    </rdf:RDF>
  </metadata>
  <g
     inkscape:label="Ebene 1"
     inkscape:groupmode="layer"
     id="layer1"
     transform="translate(0,-656.3619)">
    <g
       id="g3901"
       transform="translate(398.38539,276.63805)">
      <path
         inkscape:connector-curvature="0"
         id="path3093"
         d="m -68.758471,385.94584 c 2.74137,-0.0647 5.48302,-0.01 8.1875,0.1875 2.70448,0.19754 5.38705,0.51298 8.03125,0.96875 2.6442,0.45577 5.25198,1.04003 7.8125,1.75 2.56052,0.70997 5.07779,1.53986 7.53125,2.5 2.45346,0.96014 4.83325,2.07497 7.15625,3.28125 2.323,1.20628 4.58085,2.52037 6.75,3.96875 1.69001,1.12845 3.32306,2.34629 4.875,3.625 1.55194,1.27871 3.03322,2.61686 4.4375,4.03125 1.40428,1.41439 2.72172,2.90199 3.96875,4.4375 1.2470304,1.53551 2.4197904,3.10794 3.5000004,4.75 1.08021,1.64206 2.06495,3.3597 2.96875,5.09375 0.9038,1.73405 1.71969,3.50104 2.4375,5.3125 0.71781002,1.81146 1.35276002,3.65694 1.87500002,5.53125 0.52223998,1.87431 0.93291998,3.7649 1.24999998,5.6875 l 0.78125,4.84375 5.09375,1.28125 c 6.6000296,1.68021 14.1890196,3.8597 21.3749996,6.09375 7.18598,2.23405 13.96966,4.51166 18.96875,6.4375 6.09533,2.34815 10.60647,4.17041 14.96875,6.0625 4.36228,1.89209 8.57282,3.86808 14.03125,6.53125 6.45013,3.14701 12.53584,6.35409 18.28125,9.65625 5.745411,3.30216 11.147141,6.70718 16.312501,10.25 5.16536,3.54282 10.0713,7.22479 14.78125,11.09375 4.70995,3.86896 9.24579,7.90689 13.625,12.1875 2.73596,2.67436 5.32941,5.36995 7.78125,8.0625 2.45184,2.69255 4.7632,5.40296 6.9375,8.125 2.1743,2.72204 4.1904,5.45591 6.09375,8.21875 1.90335,2.76284 3.67352,5.52879 5.3125,8.34375 1.63898,2.81496 3.15005,5.68412 4.53125,8.5625 1.3812,2.87838 2.65125,5.76564 3.78125,8.71875 1.13,2.95311 2.11461,5.96085 3,9 0.88539,3.03915 1.66514,6.11351 2.3125,9.25 0.36018,1.74506 0.66272,4.14879 0.90625,6.875 0.24353,2.72621 0.42536,5.78122 0.53125,8.875 0.10589,3.09378 0.1465,6.21475 0.0937,9.0625 -0.0528,2.84775 -0.20511,5.41811 -0.4375,7.40625 -0.30807,2.63549 -0.75225,5.40377 -1.34375,8.21875 -0.5915,2.81498 -1.31286,5.67596 -2.15625,8.5625 -0.84339,2.88654 -1.81125,5.80606 -2.875,8.65625 -1.06375,2.85019 -2.24742,5.63784 -3.5,8.34375 -1.69998,3.67237 -3.78758,7.5219 -6.1875,11.40625 -2.39992,3.88435 -5.09248,7.80403 -8.03125,11.6875 -2.93877,3.88347 -6.12095,7.70528 -9.4375,11.375 -3.31655,3.66972 -6.77925,7.19439 -10.3125,10.4375 -2.60849,2.39429 -6.91858,6.06473 -11.03125,9.4375 -4.11267,3.37277 -8.01657,6.43852 -9.8125,7.65625 -2.04245,1.38489 -12.83293,8.57309 -14.96875,9.96875 -3.904371,2.55133 -8.922531,5.39852 -14.593751,8.34375 -5.67122,2.94523 -12.01597,5.98138 -18.53125,8.90625 -6.51528,2.92487 -13.21968,5.72849 -19.65625,8.21875 -6.43657,2.49026 -12.59618,4.67111 -18.03125,6.3125 -2.81498,0.85012 -6.77945,2.04669 -8.8125,2.65625 -3.94012,1.18137 -9.93251,2.76954 -16.2499996,4.3125 -6.31748998,1.54296 -12.97317,3.03164 -18.2187504,4.09375 -8.45511,1.71197 -17.30984,3.20189 -26.40625,4.4375 -9.09641,1.23561 -18.41485,2.23603 -27.8125,2.96875 -9.39765,0.73272 -18.85992,1.20292 -28.21875,1.40625 -9.358829,0.20333 -18.613799,0.13383 -27.593749,-0.21875 -7.53714,-0.29593 -15.00812,-0.7741 -22.40625,-1.40625 -7.39813,-0.63215 -14.7294,-1.41127 -21.96875,-2.375 -7.23935,-0.96373 -14.40793,-2.11559 -21.46875,-3.40625 -7.06082,-1.29066 -14.01249,-2.73081 -20.875,-4.34375 -6.86251,-1.61294 -13.63681,-3.38192 -20.28125,-5.3125 -6.64444,-1.93058 -13.15589,-4.03768 -19.5625,-6.28125 -6.40661,-2.24357 -12.69474,-4.63558 -18.84375,-7.1875 -6.14901,-2.55192 -12.15961,-5.23812 -18.03125,-8.09375 -4.33414,-2.10787 -8.56356,-4.32123 -12.6875,-6.59375 -4.12394,-2.27252 -8.16192,-4.60449 -12.0625,-7.03125 -3.90058,-2.42676 -7.67967,-4.92942 -11.34375,-7.5 -3.66408,-2.57058 -7.21057,-5.23351 -10.625,-7.9375 -3.41443,-2.70399 -6.69212,-5.45426 -9.84375,-8.28125 -3.15163,-2.82699 -6.15557,-5.71667 -9.03125,-8.65625 -2.87568,-2.93958 -5.63216,-5.927 -8.21875,-8.96875 -2.58659,-3.04175 -5.02816,-6.14774 -7.3125,-9.28125 -2.37616,-3.25946 -4.57659,-6.57274 -6.59375,-9.9375 -2.01716,-3.36476 -3.84668,-6.76758 -5.5,-10.21875 -1.65333,-3.45117 -3.12158,-6.95007 -4.40625,-10.46875 -1.28467,-3.51868 -2.37007,-7.05771 -3.28125,-10.625 -0.91118,-3.56729 -1.65463,-7.15299 -2.1875,-10.75 -0.53287,-3.59701 -0.85027,-7.20467 -1,-10.8125 -0.14973,-3.60783 -0.11324,-7.21275 0.125,-10.8125 0.23824,-3.59975 0.68147,-7.20847 1.3125,-10.78125 0.48566,-2.74972 1.00966,-5.35422 1.625,-7.875 0.61534,-2.52078 1.30976,-4.93202 2.09375,-7.34375 0.78399,-2.41173 1.66464,-4.82743 2.65625,-7.25 0.99161,-2.42257 2.10554,-4.85297 3.34375,-7.40625 1.56076,-3.21841 2.62009,-5.35711 3.875,-7.53125 1.25491,-2.17414 2.68657,-4.40424 4.96875,-7.84375 2.94675,-4.4411 5.83445,-8.32431 9.15625,-12.28125 3.3218,-3.95694 7.08836,-7.99101 11.8125,-12.6875 2.41579,-2.40165 5.00046,-4.80355 7.71875,-7.1875 2.71829,-2.38395 5.57892,-4.75141 8.5625,-7.09375 2.98358,-2.34234 6.06959,-4.6607 9.28125,-6.9375 3.21166,-2.2768 6.53496,-4.50015 9.9375,-6.6875 3.40254,-2.18735 6.88129,-4.33228 10.4375,-6.40625 3.55621,-2.07397 7.20233,-4.06332 10.875,-6 3.67267,-1.93668 7.37308,-3.81828 11.125,-5.59375 3.75192,-1.77547 7.54979,-3.47216 11.34375,-5.0625 5.76143,-2.41505 11.77428,-4.73187 18,-6.9375 6.22572,-2.20563 12.64713,-4.29845 19.1875,-6.25 6.54037,-1.95155 13.20088,-3.75342 19.90625,-5.40625 6.70537,-1.65283 13.46677,-3.1593 20.1875,-4.46875 l 8.125,-1.5625 3.71875,-4.4375 c 1.7301,-2.07427 3.46125,-3.95806 5.25,-5.65625 1.78875,-1.69819 3.64751,-3.22327 5.5625,-4.59375 1.91499,-1.37048 3.89118,-2.59636 6,-3.6875 2.10882,-1.09114 4.34852,-2.04608 6.71875,-2.90625 1.98892,-0.72179 3.18572,-1.10664 4.96875,-1.3125 1.78303,-0.20586 4.13196,-0.22105 8.375,-0.21875 3.64463,0.002 6.0967,0.0587 7.96875,0.21875 1.87205,0.1601 3.17217,0.41778 4.53125,0.84375 l 3.40625,1.0625 1.96875,-2.5 c 1.36711,-1.7277 3.02414,-3.5605 4.84375,-5.375 1.81961,-1.8145 3.77771,-3.60979 5.8125,-5.3125 2.03479,-1.70271 4.1436,-3.29518 6.15625,-4.6875 2.01265,-1.39232 3.93432,-2.58541 5.6875,-3.46875 2.25842,-1.13791 5.480729,-2.43635 8.812499,-3.59375 3.33177,-1.1574 6.77721,-2.17791 9.53125,-2.78125 2.74498,-0.60135 5.49513,-1.07522 8.25,-1.40625 2.75487,-0.33103 5.50863,-0.49777 8.25,-0.5625 z"
         style="fill:#000000;fill-opacity:1" />
      <path
         inkscape:connector-curvature="0"
         id="path3129"
         d="m 130.52278,641.47709 c 2.4867,-0.0257 4.86319,0.14294 8.28125,0.4375 3.15395,0.2718 5.1688,0.48837 6.40625,0.71875 1.23745,0.23038 1.6875,0.46585 1.6875,0.78125 0,0.54588 -1.11589,2.52516 -2.78125,5.03125 -1.66536,2.50609 -3.86509,5.53647 -5.96875,8.15625 -1.864,2.32132 -3.80926,4.5948 -5.8125,6.8125 -2.00324,2.2177 -4.06118,4.37402 -6.21875,6.5 -2.15757,2.12598 -4.39174,4.20384 -6.71875,6.25 -2.32701,2.04616 -4.73844,4.05303 -7.25,6.03125 -5.02311,3.95645 -10.42936,7.80641 -16.281251,11.5625 -5.85189,3.75609 -12.16727,7.44286 -18.96875,11.09375 -3.18278,1.70845 -6.73991,3.44843 -10.53125,5.21875 -3.79134,1.77032 -7.80829,3.54877 -11.96875,5.28125 -4.16046,1.73248 -8.45985,3.4363 -12.75,5.03125 -4.29015,1.59495 -8.56961,3.0798 -12.75,4.4375 -4.995,1.62227 -9.79428,3.16646 -10.65625,3.4375 -0.52841,0.16616 -1.02751,0.20201 -1.53125,0.0312 -0.50374,-0.17076 -1.00334,-0.5343 -1.53125,-1.09375 -1.05582,-1.11891 -2.21065,-3.07822 -3.65625,-6.0625 -0.78717,-1.62502 -1.43729,-3.09755 -1.9687496,-4.53125 -0.53146,-1.4337 -0.93456,-2.82894 -1.25,-4.25 -0.31544,-1.42106 -0.54838,-2.88164 -0.6875,-4.46875 -0.13912,-1.58711 -0.185,-3.28692 -0.1875,-5.21875 -0.00245,-1.96108 0.01858,-3.59394 0.125,-5.0625 0.10642,-1.46856 0.28509,-2.77359 0.5625,-4.03125 0.27741,-1.25766 0.64573,-2.48412 1.15625,-3.8125 0.51052,-1.32838 1.1630096,-2.75679 1.9687496,-4.4375 1.27312,-2.65562 2.65146,-4.96366 4.3125,-7.125 1.66104,-2.16134 3.61257,-4.19561 6.03125,-6.34375 2.12869,-1.89058 4.49226,-3.67971 7.125,-5.40625 2.63274,-1.72654 5.51681,-3.37421 8.65625,-4.9375 3.13944,-1.56329 6.53871,-3.03666 10.1875,-4.4375 3.64879,-1.40084 7.55796,-2.72958 11.71875,-3.96875 4.16079,-1.23917 8.57457,-2.39046 13.25,-3.46875 4.67543,-1.07829 9.61977,-2.08181 14.8125,-3 5.19273,-0.91819 10.63108,-1.77236 16.343751,-2.53125 5.71267,-0.75889 11.70223,-1.43087 17.9375,-2.03125 3.83782,-0.36954 6.41955,-0.56806 8.90625,-0.59375 z"
         style="fill:#ffffff;fill-opacity:1" />
      <path
         inkscape:connector-curvature="0"
         id="path3125"
         d="m -114.50847,634.60209 c 0.40458,0.15526 0.62955,0.30316 0.6875,0.53125 0.058,0.22809 -0.0336,0.50608 -0.28125,0.96875 -0.368,0.68761 -0.75208,1.2373 -1.375,1.6875 -0.62292,0.4502 -1.49156,0.81239 -2.78125,1.125 -2.57939,0.62523 -6.90746,1.07614 -14.625,1.75 -7.40103,0.64623 -15.95061,1.70489 -24.625,3 -8.67439,1.29511 -17.46066,2.82368 -25.40625,4.46875 -5.49998,1.13872 -10.98127,2.39525 -16.40625,3.75 -5.42498,1.35475 -10.80029,2.826 -16.09375,4.375 -5.29346,1.549 -10.51959,3.18477 -15.625,4.90625 -5.10541,1.72148 -10.10792,3.50281 -14.96875,5.375 -4.86083,1.87219 -9.56527,3.84262 -14.125,5.84375 -4.55973,2.00113 -8.95415,4.04796 -13.15625,6.15625 -4.2021,2.10829 -8.21205,4.27506 -12,6.46875 -3.78795,2.19369 -7.37023,4.39894 -10.6875,6.65625 -2.90219,1.97486 -5.46193,3.59875 -5.6875,3.59375 -0.40524,-0.009 -3.29742,-1.85289 -6.8125,-4.25 -3.51508,-2.39711 -7.64168,-5.34588 -10.5,-7.5625 -2.6534,-2.0577 -5.4637,-4.38156 -8.1875,-6.75 -2.7238,-2.36844 -5.35121,-4.78985 -7.65625,-7 -2.30504,-2.21015 -4.2904,-4.22968 -5.6875,-5.8125 -1.3971,-1.58282 -2.21875,-2.73228 -2.21875,-3.21875 0,-0.15862 0.22786,-0.31547 0.78125,-0.53125 0.55339,-0.21578 1.44286,-0.48244 2.78125,-0.8125 2.67678,-0.66012 7.13732,-1.60257 14.34375,-3.0625 10.83669,-2.19537 22.15098,-4.25409 33.875,-6.15625 11.72402,-1.90216 23.86535,-3.65802 36.34375,-5.25 12.4784,-1.59198 25.30642,-3.01641 38.40625,-4.28125 13.09983,-1.26484 26.47417,-2.3605 40.0625,-3.28125 11.18696,-0.75803 26.29408,-1.54741 38.75,-2.09375 12.45592,-0.54634 22.24976,-0.83368 22.875,-0.59375 z"
         style="fill:#cceac8;fill-opacity:1" />
      <path
         inkscape:connector-curvature="0"
         id="path3121"
         d="m 6.2102794,634.57084 c 2.80747,-0.14988 6.1300396,-0.072 12.1874996,0.0937 14.70394,0.40239 30.80727,1.10813 52.3125,2.3125 11.89076,0.66593 18.5719,1.0653 22.28125,1.34375 3.70935,0.27845 4.4375,0.46082 4.4375,0.6875 0,0.23441 -2.23196,0.72674 -4.96875,1.09375 -4.47584,0.60023 -8.88083,1.24844 -13.1875,2 -4.30667,0.75156 -8.51098,1.60456 -12.625,2.5 -4.11402,0.89544 -8.13334,1.84313 -12.03125,2.875 -3.89791,1.03187 -7.68542,2.12039 -11.34375,3.28125 -3.65833,1.16086 -7.19848,2.4051 -10.59375,3.6875 -3.39527,1.2824 -6.64125,2.60351 -9.75,4 -3.10875,1.39649 -6.07624,2.87187 -8.875,4.375 -2.79876,1.50313 -5.4409496,3.05392 -7.9062496,4.65625 -1.63049,1.05974 -3.39716,2.40707 -5.18749998,3.9375 -1.79034,1.53043 -3.59495002,3.23841 -5.28125002,4.96875 -1.6863,1.73034 -3.24413,3.49678 -4.5625,5.15625 -1.3183704,1.65947 -2.3759604,3.21344 -3.0625004,4.53125 -1.00504,1.92915 -1.8581,4.20618 -2.53125,6.6875 -0.67315,2.48132 -1.19243,5.17222 -1.5,7.90625 -0.30757,2.73403 -0.4042,5.5002 -0.3125,8.1875 0.0917,2.6873 0.3816,5.28389 0.90625,7.625 0.52332,2.33518 1.46972,5.09298 2.625,7.75 1.15528,2.65702 2.50685,5.21313 3.8437504,7.15625 0.57231,0.83182 0.9976,1.5463 1.21875,2.09375 0.22115,0.54745 0.26205,0.92546 0.09375,1.09375 -0.29523,0.29523 -4.9901704,1.40976 -10.4375004,2.46875 -8.58368,1.6687 -17.78312,3.11262 -27.1875,4.3125 -9.40438,1.19988 -19.01789,2.14499 -28.5,2.78125 -4.85497,0.32578 -11.18607,0.55674 -17.96875,0.6875 -6.78268,0.13076 -14.041949,0.17426 -20.718749,0.125 -6.6768,-0.0493 -12.77516,-0.19198 -17.3125,-0.40625 -4.53734,-0.21427 -7.51072,-0.51072 -7.875,-0.875 -0.29049,-0.29049 -0.0936,-2.57217 0.4375,-5.40625 0.49387,-2.63562 1.08981,-5.22337 1.78125,-7.78125 0.69144,-2.55788 1.4569,-5.08446 2.34375,-7.5625 0.88685,-2.47804 1.88866,-4.9164 2.96875,-7.3125 1.08009,-2.3961 2.26009,-4.75045 3.53125,-7.0625 1.27116,-2.31205 2.63367,-4.55534 4.09375,-6.78125 1.46008,-2.22591 3.00943,-4.42483 4.65625,-6.5625 1.64682,-2.13767 3.38734,-4.23393 5.21875,-6.28125 1.83141,-2.04732 3.76742,-4.04512 5.78125,-6 2.01383,-1.95488 4.11842,-3.85842 6.3125,-5.71875 2.194079,-1.86033 4.471579,-3.67382 6.843749,-5.4375 2.37217,-1.76368 4.8269,-3.49132 7.375,-5.15625 2.5481,-1.66493 5.18439,-3.27967 7.90625,-4.84375 2.72186,-1.56408 5.51279,-3.07012 8.40625,-4.53125 2.89346,-1.46113 5.87461,-2.86267 8.9375,-4.21875 6.12579,-2.71216 12.58446,-5.22065 19.375,-7.5 5.37885,-1.8055 12.10009,-3.72132 18.9375,-5.4375 6.83741,-1.71618 13.7958804,-3.24219 19.7500004,-4.28125 4.03831,-0.70474 6.34878,-1.06887 9.15625,-1.21875 z"
         style="fill:#ffd102;fill-opacity:1" />
      <path
         inkscape:connector-curvature="0"
         id="path3117"
         d="m -52.852221,633.41459 c 9.1487,-0.0829 16.65625,0.0566 16.65625,0.3125 0,0.25594 -2.51294,1.05657 -5.5625,1.78125 -3.04957,0.72467 -9.42033,2.44257 -14.1875,3.8125 -4.76717,1.36994 -9.41999,2.5 -10.3125,2.5 -0.63518,0 -1.17168,-0.10467 -1.625,-0.3125 -0.45332,-0.20783 -0.81543,-0.54258 -1.09375,-0.96875 -0.27832,-0.42617 -0.48356,-0.93872 -0.59375,-1.59375 -0.11019,-0.65503 -0.11358,-1.44935 -0.0625,-2.34375 l 0.15625,-3.03125 16.625,-0.15625 z"
         style="fill:#cceac8;fill-opacity:1" />
      <path
         inkscape:connector-curvature="0"
         id="path3113"
         d="m -69.227221,613.78959 c 0.22653,-0.24043 2.30067,0.43559 4.625,1.5 2.45222,1.12297 6.03657,2.51072 9.53125,3.75 3.49468,1.23928 6.90811,2.33312 9.0625,2.84375 1.64207,0.3892 2.96875,0.93717 2.96875,1.21875 0,0.25979 -0.60935,0.37983 -3.1875,0.375 -2.57815,-0.005 -7.11471,-0.13169 -15,-0.40625 l -8.8125,-0.3125 0.1875,-4.25 c 0.10774,-2.34582 0.39849,-4.47832 0.625,-4.71875 z"
         style="fill:#ffffff;fill-opacity:1" />
      <path
         inkscape:connector-curvature="0"
         id="path3109"
         d="m -102.82097,584.60209 c 0.29477,-0.0405 0.56442,0.0109 0.875,0.1875 0.62115,0.35316 1.41699,1.22275 2.968749,2.9375 1.73746,1.91996 5.19298,5.07027 7.6875,7 l 4.53125,3.5 -0.15625,21.9375 -0.1875,21.9375 -1.59375,3.25 c -0.63523,1.29362 -1.36948,2.49366 -2.1875,3.625 -0.81802,1.13134 -1.71785,2.22034 -2.78125,3.25 -1.0634,1.02966 -2.2849,2.01143 -3.65625,3 -1.37135,0.98857 -2.914369,1.96068 -4.656249,2.96875 -4.69513,2.71721 -7.37167,4.31998 -9.8125,5.90625 -2.44083,1.58627 -4.64022,3.15432 -8.3125,5.875 -2.27887,1.68834 -4.48878,3.47335 -6.65625,5.3125 -2.16747,1.83915 -4.27449,3.75138 -6.3125,5.71875 -2.03801,1.96737 -4.01577,3.98948 -5.90625,6.0625 -1.89048,2.07302 -3.71262,4.18767 -5.4375,6.34375 -1.72488,2.15608 -3.36503,4.34594 -4.90625,6.5625 -1.54122,2.21656 -2.97301,4.46429 -4.3125,6.71875 -1.33949,2.25446 -2.5678,4.51148 -3.6875,6.78125 -1.1197,2.26977 -2.14941,4.55 -3.03125,6.8125 -1.12977,2.89863 -2.16232,5.87365 -3.03125,8.59375 -0.86893,2.7201 -1.54721,5.17147 -1.9375,7.03125 -0.39383,1.87666 -0.98185,3.73403 -1.28125,4.125 -0.18169,0.23726 -0.39532,0.43535 -0.78125,0.53125 -0.38593,0.0959 -0.94484,0.0981 -1.8125,0.0312 -1.73531,-0.13369 -4.70408,-0.61834 -10.03125,-1.53125 -6.68185,-1.14505 -13.1535,-2.3885 -19.46875,-3.75 -6.31525,-1.3615 -12.46956,-2.82956 -18.53125,-4.4375 -6.06169,-1.60794 -12.01634,-3.33439 -17.9375,-5.21875 -5.92116,-1.88436 -11.82508,-3.93423 -17.71875,-6.125 -5.38134,-2.00032 -11.20426,-4.46095 -15.6875,-6.53125 -2.24162,-1.03515 -4.15578,-1.94559 -5.5,-2.6875 -1.34422,-0.74191 -2.12675,-1.28972 -2.125,-1.53125 0.003,-0.39359 1.70478,-1.99862 3.75,-3.5625 2.04523,-1.56388 4.65557,-3.58138 5.8125,-4.46875 1.19746,-0.91845 3.69285,-2.50873 6.875,-4.40625 3.18215,-1.89752 7.06239,-4.09379 10.96875,-6.21875 3.67329,-1.99818 7.70815,-3.9981 12.0625,-5.96875 4.35435,-1.97065 8.99795,-3.90688 13.90625,-5.8125 4.9083,-1.90562 10.07112,-3.79068 15.40625,-5.59375 5.33513,-1.80307 10.86515,-3.5245 16.5,-5.1875 5.63485,-1.663 11.38005,-3.26458 17.1875,-4.75 5.80745,-1.48542 11.6783,-2.85468 17.53125,-4.125 5.85295,-1.27032 11.69743,-2.41979 17.46875,-3.4375 5.77132,-1.01771 11.46866,-1.89741 17.03125,-2.625 4.64375,-0.60741 9.74762,-1.52278 11.34375,-2 1.29421,-0.38695 2.52935,-0.92304 3.6875,-1.625 1.15815,-0.70196 2.22459,-1.54207 3.21875,-2.53125 0.99416,-0.98918 1.91651,-2.12639 2.71875,-3.375 0.802239,-1.24861 1.480119,-2.61352 2.062499,-4.09375 0.29185,-0.74177 0.51835,-1.38083 0.6875,-2.09375 0.16915,-0.71292 0.29935,-1.51105 0.375,-2.625 0.1513,-2.22791 0.14125,-5.68237 0.09375,-12.09375 -0.05562,-7.50663 -0.38201,-15.68529 -0.71875,-18.1875 -0.41317,-3.07012 -1.12138,-5.98195 -2.031249,-8.5 -0.45493,-1.25902 -0.95112,-2.43141 -1.5,-3.46875 -0.54888,-1.03734 -1.12733,-1.95887 -1.75,-2.71875 -1.13372,-1.38357 -2.0625,-2.77294 -2.0625,-3.09375 0,-0.32081 0.77031,-0.8884 1.71875,-1.28125 0.42353,-0.17543 0.73648,-0.30323 1.03125,-0.34375 z"
         style="fill:#ffffff;fill-opacity:1" />
      <path
         inkscape:connector-curvature="0"
         id="path3105"
         d="m 4.0852794,459.25834 c 0.75293,-9e-4 1.81086,0.17607 4.21875,0.8125 2.4078896,0.63643 6.1788696,1.7249 12.3749996,3.5625 7.1529,2.12136 14.16606,4.47228 21.03125,7.03125 6.86519,2.55897 13.58149,5.34564 20.09375,8.3125 6.51226,2.96686 12.81214,6.12371 18.90625,9.46875 6.09411,3.34504 11.98302,6.869 17.59375,10.5625 4.927981,3.24406 9.592921,6.63384 14.031251,10.15625 4.43833,3.52241 8.62958,7.18198 12.53125,10.9375 3.90167,3.75552 7.52574,7.61911 10.84375,11.5625 3.31801,3.94339 6.3439,7.97648 9.03125,12.0625 1.78409,2.71264 3.42904,5.44726 4.9375,8.25 1.50846,2.80274 2.86043,5.66851 4.09375,8.5625 1.23332,2.89399 2.35384,5.82612 3.3125,8.8125 0.95866,2.98638 1.75302,6.01384 2.4375,9.09375 0.52933,2.38172 0.84833,4.23047 1.03125,6.6875 0.18292,2.45703 0.2446,5.54036 0.25,10.34375 0.006,4.86779 -0.0366,7.90732 -0.21875,10.375 -0.1822,2.46768 -0.51162,4.35738 -1.0625,6.875 -0.76977,3.51788 -1.84773,7.38388 -3.0625,11 -1.21477,3.61612 -2.54968,6.9665 -3.78125,9.40625 -0.50128,0.99302 -0.86877,1.75198 -1.21875,2.28125 -0.34998,0.52927 -0.69503,0.8273 -1.21875,1 -0.52372,0.1727 -1.22751,0.20168 -2.25,0.125 -1.02249,-0.0767 -2.37246,-0.24987 -4.21875,-0.46875 -6.29792,-0.74663 -15.58607,-1.65498 -26.5625,-2.625 -10.97643,-0.97002 -23.635521,-2.01216 -36.593751,-3 -25.91645,-1.97568 -53.08661,-3.78028 -70.7499996,-4.59375 -7.66301,-0.35292 -14.515,-0.73983 -15.21875,-0.875 -0.70995,-0.13636 -1.15252,-0.47497 -1.25,-0.78125 -0.04874,-0.15314 -0.00779,-0.29992 0.125,-0.40625 0.13279,-0.10633 0.35423,-0.1875 0.6875,-0.1875 0.78302,0 3.75455,-0.87176 6.96875,-1.96875 3.2142,-1.09699 6.68479,-2.39523 8.40625,-3.25 3.3500096,-1.6634 6.4578096,-3.59808 9.3124996,-5.71875 2.85469,-2.12067 5.45375,-4.44084 7.78125,-6.9375 2.3275,-2.49666 4.38778,-5.14614 6.15625,-7.9375 1.76847,-2.79136 3.22867,-5.71397 4.40625,-8.71875 1.17758,-3.00478 2.07017,-6.11308 2.625,-9.25 0.55483,-3.13692 0.78727,-6.31222 0.6875,-9.5 -0.04989,-1.59389 -0.18674,-3.18989 -0.40625,-4.78125 -0.21951,-1.59136 -0.51314,-3.17133 -0.90625,-4.75 -0.39311,-1.57867 -0.89805,-3.16292 -1.46875,-4.71875 -0.5707,-1.55583 -1.21648,-3.10218 -1.96875,-4.625 -0.92764,-1.87782 -1.94008,-3.6479 -3.03125,-5.34375 -1.09117,-1.69585 -2.26128,-3.30499 -3.5625,-4.875 -1.30122,-1.57001 -2.72346,-3.09345 -4.28125,-4.59375 -1.55779,-1.5003 -3.26412,-2.98203 -5.125,-4.46875 -2.18943,-1.7492 -4.11807,-3.40446 -4.3125,-3.6875 -0.19444,-0.28304 -0.0049,-1.70226 0.4375,-3.15625 0.33743,-1.10896 0.61576,-2.46679 0.8125,-3.96875 0.19674,-1.50196 0.32466,-3.14179 0.375,-4.84375 0.10068,-3.40391 -0.10582,-7.01668 -0.625,-10.0625 -0.47973,-2.81436 -1.14487,-5.56521 -1.96875,-8.25 -0.82388,-2.68479 -1.79724,-5.31217 -2.96875,-7.875 -1.17151,-2.56283 -2.5398696,-5.05151 -4.0624996,-7.5 -1.52263,-2.44849 -3.21652,-4.84573 -5.09375,-7.1875 l -2.62499998,-3.28125 1,-3.59375 c 0.54502998,-1.96554 1.18176998,-4.89907 1.40624998,-6.53125 0.18772,-1.36487 0.30344,-2.09912 0.5625,-2.5 0.25906,-0.40088 0.64902,-0.46775 1.34375,-0.46875 z"
         style="fill:#ffffff;fill-opacity:1" />
      <path
         inkscape:connector-curvature="0"
         id="path3101"
         d="m -195.10222,455.41459 c 0.17062,0.17061 -0.32585,2.44986 -1.09375,5.0625 -1.438,4.89253 -2.37968,8.60704 -2.96875,11.875 -0.58907,3.26796 -0.8125,6.10253 -0.8125,9.1875 l 0,4.4375 -5.09375,4 c -3.15456,2.48838 -6.05068,5.17358 -8.6875,8 -2.63681,2.82642 -5.0003,5.77598 -7,8.8125 -1.8076,2.74481 -3.182,5.11041 -4.34375,7.625 -1.16175,2.51459 -2.09499,5.17047 -3.09375,8.5 -0.50272,1.6759 -0.94108,3.78026 -1.25,6.09375 -0.30892,2.31349 -0.4944,4.85963 -0.59375,7.40625 -0.0994,2.54662 -0.0948,5.09345 0.0312,7.46875 0.12601,2.3753 0.35161,4.57548 0.71875,6.375 0.777,3.80836 1.77402,7.38481 3,10.8125 1.22598,3.42769 2.70318,6.68875 4.4375,9.84375 1.73432,3.155 3.72924,6.22845 6.03125,9.21875 2.30201,2.9903 4.91469,5.91018 7.84375,8.84375 2.09737,2.10059 4.2298,4.07929 6.4375,5.9375 2.2077,1.85821 4.4869,3.59955 6.8125,5.21875 2.3256,1.6192 4.70518,3.11644 7.15625,4.5 2.45107,1.38356 4.97839,2.66121 7.5625,3.8125 2.58411,1.15129 5.21278,2.17135 7.9375,3.09375 2.72472,0.9224 5.53334,1.74062 8.40625,2.4375 2.87291,0.69688 5.81509,1.27527 8.84375,1.75 3.02866,0.47473 6.15176,0.83779 9.34375,1.09375 4.03564,0.32361 8.98448,0.34709 13.875,0.0937 4.89052,-0.25334 9.70562,-0.77077 13.5,-1.5 2.34582,-0.45081 4.46617,-0.62376 4.71875,-0.375 0.41927,0.41294 0.72053,2.09422 0.8125,3.71875 0.046,0.81227 0.0322,1.59103 -0.0312,2.21875 -0.0634,0.62772 -0.18374,1.10055 -0.375,1.21875 -0.38548,0.23824 -11.72454,0.64556 -25.21875,0.90625 -9.67605,0.18693 -19.3423,0.45792 -28.9375,0.8125 -9.5952,0.35458 -19.11448,0.79634 -28.5625,1.3125 -9.44802,0.51616 -18.82801,1.1096 -28.0625,1.78125 -9.23449,0.67165 -18.32662,1.39769 -27.28125,2.21875 -8.95463,0.82106 -17.76657,1.72312 -26.375,2.6875 -8.60843,0.96438 -17.02285,1.99212 -25.21875,3.09375 -8.1959,1.10163 -16.15798,2.26721 -23.875,3.5 -7.71702,1.23279 -15.17194,2.54838 -22.34375,3.90625 -3.22183,0.61 -6.08515,1.09375 -6.34375,1.09375 -0.37025,0 -0.7376,-0.27279 -1.3125,-1.15625 -0.5749,-0.88346 -1.34665,-2.37514 -2.5625,-4.8125 -1.6352,-3.27801 -3.04397,-6.36677 -4.25,-9.34375 -1.20603,-2.97698 -2.20458,-5.83998 -3.03125,-8.6875 -0.82667,-2.84752 -1.50289,-5.67288 -2,-8.5625 -0.49711,-2.88962 -0.81389,-5.83421 -1.03125,-8.9375 -0.28377,-4.05127 -0.30672,-8.0402 -0.0625,-11.96875 0.24422,-3.92855 0.75083,-7.80993 1.53125,-11.65625 0.78042,-3.84632 1.83141,-7.66414 3.15625,-11.46875 1.32484,-3.80461 2.90377,-7.5716 4.78125,-11.375 1.11523,-2.25923 2.33919,-4.51049 3.625,-6.71875 1.28581,-2.20826 2.63474,-4.40221 4.09375,-6.5625 1.45901,-2.16029 3.0214,-4.29093 4.65625,-6.40625 1.63485,-2.11532 3.34294,-4.20789 5.15625,-6.28125 3.62662,-4.14672 7.61254,-8.22186 11.96875,-12.21875 4.35621,-3.99689 9.08068,-7.91016 14.1875,-11.78125 2.84918,-2.15975 5.85434,-4.27645 9,-6.375 3.14566,-2.09855 6.43248,-4.16481 9.84375,-6.1875 3.41127,-2.02269 6.94774,-4.00531 10.59375,-5.9375 3.64601,-1.93219 7.40013,-3.82922 11.25,-5.65625 3.84987,-1.82703 7.78965,-3.60528 11.8125,-5.3125 4.02285,-1.70722 8.14755,-3.33349 12.3125,-4.90625 4.16495,-1.57276 8.38007,-3.07636 12.65625,-4.5 4.27618,-1.42364 8.61221,-2.77138 12.96875,-4.03125 6.50292,-1.88059 14.03912,-3.84032 20.03125,-5.25 5.99213,-1.40968 10.43481,-2.28395 10.71875,-2 z"
         style="fill:#ffffff;fill-opacity:1" />
      <path
         inkscape:connector-curvature="0"
         id="path3097"
         d="m -63.320971,399.10209 c 2.33836,0.0972 4.66003,0.29593 6.875,0.59375 2.21497,0.29782 4.32083,0.69839 6.1875,1.1875 2.65581,0.69588 5.23272,1.54269 7.75,2.5625 2.51728,1.01981 4.97238,2.20934 7.3125,3.53125 2.34012,1.32191 4.59441,2.80405 6.71875,4.40625 2.12434,1.6022 4.13006,3.32683 6,5.1875 1.79503,1.78613 3.41324,3.65344 4.90625,5.59375 1.49301,1.94031 2.85748,3.94333 4.0625,6.0625 1.20502,2.11917 2.25644,4.33354 3.1875,6.65625 0.9310604,2.32271 1.7351104,4.76157 2.4062504,7.3125 0.45179,1.71719 0.81232,3.70643 1.0625,5.84375 0.25018,2.13732 0.39403,4.43012 0.4375,6.71875 0.04347,2.28863 -0.01915,4.57889 -0.1875,6.75 -0.16835,2.17111 -0.45848,4.21521 -0.84375,6 -0.57822,2.67858 -1.29939,5.32922 -2.15625,7.96875 -0.8568604,2.63953 -1.8312704,5.26999 -2.9687504,7.875 -1.13748,2.60501 -2.42368,5.20625 -3.84375,7.78125 -1.42007,2.575 -2.98287,5.13798 -4.6875,7.6875 -2.06139,3.08309 -3.65428,5.85752 -3.53125,6.1875 0.11801,0.31654 3.02435,-2.30999 6.21875,-5.4375 3.1944,-3.12751 6.69324,-6.75598 7.9375,-8.40625 0.44189,-0.58608 0.8855204,-1.0303 1.2812504,-1.3125 0.39573,-0.2822 0.72171,-0.4073 0.96875,-0.3125 0.32785,0.12581 0.80043,0.68681 1.34375,1.53125 0.54332,0.84444 1.16789,1.98651 1.78125,3.25 1.22672,2.52698 2.45947,5.59434 3.09375,8 0.59874,2.27086 1.05829002,6.27307 1.25000002,9.84375 0.09585,1.78534 0.11285,3.4675 0.0625,4.75 -0.05035,1.2825 -0.18007,2.17845 -0.40625002,2.40625 -0.22694,0.22857 -0.43402,0.33048 -1.71875,0.0312 -1.28473,-0.29923 -3.64436,-1.00417 -8.1875004,-2.34375 -3.44503,-1.0158 -5.52542,-1.44918 -6.1875,-1.3125 -0.16552,0.0342 -0.26267,0.11343 -0.25,0.21875 0.01267,0.10532 0.11995,0.23013 0.3125,0.40625 0.3851,0.35225 1.13515,0.86665 2.25,1.5 4.20246,2.38743 7.6703704,4.59749 10.8750004,7.03125 3.20463002,2.43376 6.14521,5.07172 9.3125,8.28125 1.9076,1.93304 3.55769,3.71798 4.9999996,5.4375 1.44231,1.71952 2.6835,3.3704 3.78125,5.0625 1.09775,1.6921 2.06359,3.43047 2.9375,5.28125 0.87391,1.85078 1.66669,3.8357 2.4375,6.03125 0.99194,2.82545 1.48845,4.34556 1.75,6.125 0.26155,1.77944 0.2914,3.80179 0.28125,7.65625 -0.0092,3.49878 -0.07405,5.61707 -0.28125,7.34375 -0.2072,1.72668 -0.5782,3.08401 -1.21875,5 -0.63618,1.90292 -1.39526,3.72301 -2.28125,5.5 -0.88599,1.77699 -1.88778,3.49411 -3,5.125 -1.11222,1.63089 -2.34137,3.19163 -3.65625,4.65625 -1.3148796,1.46462 -2.7247896,2.84682 -4.2187496,4.125 -1.49396,1.27818 -3.06928,2.45968 -4.71875,3.53125 -1.64946998,1.07157 -3.37485,2.0302 -5.15625,2.875 -1.7814,0.8448 -3.61024,1.5584 -5.5,2.15625 -1.8897604,0.59785 -3.8379504,1.07552 -5.8125004,1.40625 -2.87619,0.48176 -5.66771,0.76772 -8.4375,0.84375 -2.76979,0.076 -5.50836,-0.063 -8.28125,-0.40625 -2.77289,-0.34326 -5.58326,-0.91139 -8.46875,-1.6875 -2.88549,-0.77611 -5.86116,-1.74624 -8.96875,-2.96875 -3.26154,-1.28307 -6.6258,-2.91408 -9.21875,-4.375 -1.29647,-0.73046 -2.39653,-1.41571 -3.1875,-2 -0.79097,-0.58429 -1.28386,-1.06398 -1.34375,-1.375 -0.05727,-0.29738 0.10356,-0.69972 0.46875,-1.125 0.36519,-0.42528 0.93214,-0.8958 1.65625,-1.375 1.27068,-0.8409 2.3125,-1.70684 2.3125,-1.9375 0,-0.23065 -1.98223,-1.10966 -4.40625,-1.96875 -2.80798,-0.99517 -5.50806,-2.20767 -8.15625,-3.625 -2.64819,-1.41733 -5.23563,-3.04757 -7.75,-4.90625 -2.51437,-1.85868 -4.96848,-3.93076 -7.375,-6.25 -2.40652,-2.31924 -4.7691,-4.88851 -7.09375,-7.6875 l -2.59375,-3.125 -6.843749,3.28125 c -3.01604,1.44292 -5.97041,2.72502 -8.90625,3.84375 -2.93584,1.11873 -5.84532,2.06681 -8.75,2.875 -2.90468,0.80819 -5.82743,1.48871 -8.75,2 -2.92257,0.51129 -5.85424,0.86571 -8.84375,1.09375 -2.89318,0.2207 -5.25,0.58948 -5.25,0.8125 0,0.22301 1.72842,1.07633 3.84375,1.90625 2.89717,1.13666 5.99618,2.73713 8.84375,4.5 2.84757,1.76287 5.42239,3.69232 7.28125,5.5 1.65567,1.6101 2.68674,2.79367 3.09375,3.65625 0.20351,0.43129 0.24934,0.78508 0.15625,1.0625 -0.0931,0.27742 -0.33945,0.47945 -0.71875,0.625 -1.14769,0.44041 -4.47369,0.85986 -8.3125,1.125 -3.83881,0.26514 -8.1726,0.39212 -11.34375,0.25 -3.10026,-0.13894 -6.1591,-0.42973 -9.15625,-0.875 -2.99715,-0.44527 -5.93743,-1.05771 -8.84375,-1.8125 -2.90632,-0.75479 -5.76598,-1.65125 -8.59375,-2.71875 -2.82777,-1.0675 -5.6135,-2.3041 -8.375,-3.6875 -3.04466,-1.52524 -5.95347,-3.18496 -8.6875,-4.96875 -2.73403,-1.78379 -5.31512,-3.7045 -7.71875,-5.71875 -2.40363,-2.01425 -4.63405,-4.12712 -6.6875,-6.34375 -2.05345,-2.21663 -3.91025,-4.51533 -5.59375,-6.90625 -1.6835,-2.39092 -3.17499,-4.86913 -4.46875,-7.40625 -1.29376,-2.53712 -2.39699,-5.12601 -3.28125,-7.78125 -0.88426,-2.65524 -1.57628,-5.37973 -2.03125,-8.125 -0.45497,-2.74527 -0.68159,-5.53654 -0.6875,-8.34375 -0.006,-2.76937 0.23464,-5.49569 0.6875,-8.21875 0.45286,-2.72306 1.13096,-5.43292 2.03125,-8.09375 0.90029,-2.66083 2.00729,-5.29231 3.34375,-7.875 1.33646,-2.58269 2.89489,-5.10512 4.65625,-7.59375 1.76136,-2.48863 3.73125,-4.93385 5.90625,-7.3125 2.175,-2.37865 4.54763,-4.716 7.125,-6.96875 2.57737,-2.25275 5.34403,-4.42031 8.3125,-6.53125 2.96847,-2.11094 6.15169,-4.14054 9.5,-6.09375 2.21605,-1.29272 3.86876,-2.29301 4.9375,-3 1.06874,-0.70699 1.53627,-1.12882 1.4375,-1.28125 -0.0988,-0.15243 -0.77603,-0.0272 -2.0625,0.34375 -1.28647,0.37095 -3.16188,0.98059 -5.65625,1.84375 -3.71444,1.28535 -7.45346,2.46753 -8.3125,2.625 l -1.5625,0.28125 0.3125,-3.625 c 0.18039,-2.04109 0.45642,-4.04936 0.8125,-6.0625 0.35608,-2.01314 0.79434,-4.0133 1.3125,-5.96875 0.51816,-1.95545 1.11462,-3.88197 1.78125,-5.75 0.66663,-1.86803 1.38602,-3.68664 2.1875,-5.4375 0.80148,-1.75086 1.67103,-3.42729 2.59375,-5.03125 0.92272,-1.60396 1.90715,-3.13518 2.9375,-4.5625 1.03035,-1.42732 2.12563,-2.74781 3.25,-3.96875 1.12437,-1.22094 2.29523,-2.32768 3.5,-3.3125 1.0931,-0.89354 2.32974,-1.78 3.65625,-2.59375 1.32651,-0.81375 2.72474,-1.57645 4.15625,-2.25 1.43151,-0.67355 2.87312,-1.24581 4.28125,-1.71875 1.40813,-0.47294 2.7749,-0.81934 4.03125,-1.03125 2.21107,-0.37294 5.69273,-0.47955 8.71875,-0.375 1.51301,0.0523 2.91617,0.13147 4,0.28125 1.08383,0.14978 1.82979,0.36104 2.0625,0.59375 0.17622,0.17621 0.21026,0.61368 0.0937,1.3125 -0.11651,0.69882 -0.38454,1.66619 -0.78125,2.8125 -0.67935,1.96304 -1.71918,5.63384 -2.3125,8.15625 -0.87518,3.7207 -1.56342,8.5488 -1.875,12.28125 -0.15579,1.86623 -0.21166,3.47306 -0.15625,4.5 0.0277,0.51347 0.0982,0.86413 0.1875,1.0625 0.0893,0.19837 0.187,0.21816 0.34375,0.0312 0.10929,-0.13033 1.79645,-3.42725 3.71875,-7.34375 1.68638,-3.43582 3.48315,-6.71094 5.375,-9.8125 1.89185,-3.10156 3.88127,-6.02219 5.96875,-8.78125 2.08748,-2.75906 4.258,-5.34167 6.53125,-7.75 2.27325,-2.40833 4.64456,-4.63815 7.09375,-6.6875 2.44919,-2.04935 4.97848,-3.94287 7.59375,-5.625 2.615269,-1.68213 5.322249,-3.16208 8.093749,-4.46875 2.7715,-1.30667 5.61336,-2.42078 8.53125,-3.34375 2.91789,-0.92297 5.88307,-1.65646 8.9375,-2.1875 1.91037,-0.33213 4.04442,-0.54345 6.28125,-0.65625 2.23683,-0.1128 4.59914,-0.12843 6.9375,-0.0312 z"
         style="fill:#56b849;fill-opacity:1" />
    </g>
  </g>
</svg>
