<?xml version="1.0" encoding="UTF-8" standalone="no"?>
<!-- Uploaded to: SVG Repo, www.svgrepo.com, Generator: SVG Repo Mixer Tools -->

<svg
   version="1.1"
   id="Layer_1"
   viewBox="0 0 473.931 473.931"
   xml:space="preserve"
   sodipodi:docname="akte.svg"
   inkscape:version="1.2.2 (732a01da63, 2022-12-09)"
   xmlns:inkscape="http://www.inkscape.org/namespaces/inkscape"
   xmlns:sodipodi="http://sodipodi.sourceforge.net/DTD/sodipodi-0.dtd"
   xmlns="http://www.w3.org/2000/svg"
   xmlns:svg="http://www.w3.org/2000/svg"><defs
   id="defs143" /><sodipodi:namedview
   id="namedview141"
   pagecolor="#505050"
   bordercolor="#eeeeee"
   borderopacity="1"
   inkscape:showpageshadow="0"
   inkscape:pageopacity="0"
   inkscape:pagecheckerboard="0"
   inkscape:deskcolor="#505050"
   showgrid="false"
   inkscape:zoom="1.4182101"
   inkscape:cx="236.91834"
   inkscape:cy="236.91834"
   inkscape:window-width="1920"
   inkscape:window-height="1011"
   inkscape:window-x="-8"
   inkscape:window-y="-8"
   inkscape:window-maximized="1"
   inkscape:current-layer="Layer_1" />




<polygon
   style="fill:#f06668"
   points="169.116,127.703 166.617,127.71 107.972,157.292 123.628,157.289 162.879,137.611 169.116,137.611 "
   id="polygon10"
   transform="matrix(1.6871406,0,0,1.6871406,-167.4972,-121.99089)" />
<polygon
   style="fill:#ffffff"
   points="163.096,137.596 123.628,157.363 170.149,157.363 207.118,137.596 "
   id="polygon12"
   transform="matrix(1.6871406,0,0,1.6871406,-167.4972,-121.99089)" />
<polygon
   style="fill:#f06668"
   points="170.452,157.289 170.456,334.742 227.248,297.99 227.245,126.273 "
   id="polygon14"
   transform="matrix(1.6871406,0,0,1.6871406,-167.4972,-121.99089)" />
<g
   id="g22"
   transform="matrix(1.6871406,0,0,1.6871406,-167.4972,-121.99089)">
	<rect
   x="107.396"
   y="157.304"
   style="fill:#f6a2a3"
   width="63.060001"
   height="177.43401"
   id="rect16" />
	<polygon
   style="fill:#f6a2a3"
   points="225.692,126.4 165.378,157.289 170.426,157.24 227.439,126.273 "
   id="polygon18" />
	<polygon
   style="fill:#f6a2a3"
   points="107.396,157.289 112.447,157.292 169.068,127.703 166.617,127.71 "
   id="polygon20" />
</g>
<g
   id="g30"
   transform="matrix(1.6871406,0,0,1.6871406,-167.4972,-121.99089)">
	<polygon
   style="fill:#e58e8f"
   points="169.128,137.551 169.128,127.703 167.994,128.327 168.05,137.551 "
   id="polygon24" />
	<polygon
   style="fill:#e58e8f"
   points="169.128,137.551 169.128,127.703 167.994,128.327 168.05,137.551 "
   id="polygon26" />
	<polygon
   style="fill:#e58e8f"
   points="169.128,137.551 169.128,127.703 167.994,128.327 168.05,137.551 "
   id="polygon28" />
</g>
<polygon
   style="fill:#d88080"
   points="111.448,157.292 114.711,157.292 167.964,129.903 169.116,127.703 "
   id="polygon32"
   transform="matrix(1.6871406,0,0,1.6871406,-167.4972,-121.99089)" />
<g
   id="g40"
   transform="matrix(1.6871406,0,0,1.6871406,-167.4972,-121.99089)">
	<polygon
   style="fill:#dddddc"
   points="130.834,157.307 165.711,137.715 169.292,137.719 133.966,157.307 "
   id="polygon34" />
	<polygon
   style="fill:#dddddc"
   points="143.291,157.307 178.171,137.715 181.752,137.719 146.419,157.307 "
   id="polygon36" />
	<polygon
   style="fill:#dddddc"
   points="156.204,157.307 191.077,137.715 194.658,137.719 159.332,157.307 "
   id="polygon38" />
</g>
<rect
   x="22.204885"
   y="157.16508"
   style="fill:#f06668;stroke-width:1.68714"
   width="89.415077"
   height="55.029469"
   id="rect42" />
<rect
   x="29.591187"
   y="164.04524"
   style="fill:#ffffff;stroke-width:1.68714"
   width="74.694771"
   height="41.274208"
   id="rect44" />
<circle
   style="fill:#f06668;stroke-width:1.68714"
   cx="65.012703"
   cy="269.53369"
   r="27.505453"
   id="circle46" />
<circle
   style="fill:#f6a2a3;stroke-width:1.68714"
   cx="65.012703"
   cy="269.53369"
   r="23.439444"
   id="circle48" />
<circle
   style="fill:#f06668;stroke-width:1.68714"
   cx="65.012703"
   cy="364.29025"
   r="27.505453"
   id="circle50" />
<circle
   style="fill:#f6a2a3;stroke-width:1.68714"
   cx="65.012703"
   cy="364.29025"
   r="23.439444"
   id="circle52" />
<polygon
   style="fill:#357180"
   points="248.842,87.842 246.343,87.845 187.694,117.435 203.353,117.428 242.605,97.746 248.838,97.746 "
   id="polygon54"
   transform="matrix(1.6871406,0,0,1.6871406,-167.4972,-121.99089)" />
<polygon
   style="fill:#ffffff"
   points="242.818,97.739 203.353,117.503 249.867,117.506 286.843,97.739 "
   id="polygon56"
   transform="matrix(1.6871406,0,0,1.6871406,-167.4972,-121.99089)" />
<polygon
   style="fill:#357180"
   points="250.17,117.428 250.174,331.12 306.97,294.361 306.97,86.412 "
   id="polygon58"
   transform="matrix(1.6871406,0,0,1.6871406,-167.4972,-121.99089)" />
<g
   id="g66"
   transform="matrix(1.6871406,0,0,1.6871406,-167.4972,-121.99089)">
	<rect
   x="187.125"
   y="117.428"
   style="fill:#67b8cb"
   width="63.056"
   height="213.692"
   id="rect60" />
	<polygon
   style="fill:#67b8cb"
   points="305.414,86.539 245.1,117.428 250.152,117.379 307.161,86.412 "
   id="polygon62" />
	<polygon
   style="fill:#67b8cb"
   points="187.122,117.428 192.169,117.435 248.79,87.842 246.343,87.845 "
   id="polygon64" />
</g>
<g
   id="g72"
   transform="matrix(1.6871406,0,0,1.6871406,-167.4972,-121.99089)">
	<polygon
   style="fill:#e58e8f"
   points="248.85,97.69 248.85,87.842 247.716,88.463 247.776,97.69 "
   id="polygon68" />
	<polygon
   style="fill:#e58e8f"
   points="248.85,97.69 248.85,87.842 247.716,88.463 247.776,97.69 "
   id="polygon70" />
</g>
<polygon
   style="fill:#67b7c3"
   points="248.85,97.69 248.85,87.842 247.716,88.463 247.776,97.69 "
   id="polygon74"
   transform="matrix(1.6871406,0,0,1.6871406,-167.4972,-121.99089)" />
<polygon
   style="fill:#43a0aa"
   points="191.17,117.435 194.433,117.435 247.682,90.038 248.842,87.842 "
   id="polygon76"
   transform="matrix(1.6871406,0,0,1.6871406,-167.4972,-121.99089)" />
<g
   id="g84"
   transform="matrix(1.6871406,0,0,1.6871406,-167.4972,-121.99089)">
	<polygon
   style="fill:#dddddc"
   points="210.556,117.446 245.437,97.851 249.018,97.858 213.684,117.446 "
   id="polygon78" />
	<polygon
   style="fill:#dddddc"
   points="223.016,117.446 257.897,97.851 261.478,97.858 226.141,117.446 "
   id="polygon80" />
	<polygon
   style="fill:#dddddc"
   points="235.929,117.446 270.802,97.851 274.383,97.858 239.054,117.446 "
   id="polygon82" />
</g>
<rect
   x="156.73241"
   y="89.919029"
   style="fill:#357180;stroke-width:1.68714"
   width="89.415077"
   height="55.022713"
   id="rect86" />
<rect
   x="164.0546"
   y="96.80764"
   style="fill:#ffffff;stroke-width:1.68714"
   width="74.706581"
   height="41.260708"
   id="rect88" />
<g
   id="g94"
   transform="matrix(1.6871406,0,0,1.6871406,-167.4972,-121.99089)">
	<circle
   style="fill:#357180"
   cx="217.54601"
   cy="205.49699"
   r="16.306999"
   id="circle90" />
	<circle
   style="fill:#357180"
   cx="217.54601"
   cy="274.34601"
   r="16.306999"
   id="circle92" />
</g>
<polygon
   style="opacity:0.15;enable-background:new"
   points="346.633,329.043 292.224,330.88 324.01,297.006 377.888,297.283 "
   id="polygon96"
   transform="matrix(1.6871406,0,0,1.6871406,-167.4972,-121.99089)" />
<polygon
   style="fill:#2f8442"
   points="301.313,144.335 299.487,144.709 261.085,174.939 272.509,172.63 298.226,152.48 302.776,151.556 "
   id="polygon98"
   transform="matrix(1.6871406,0,0,1.6871406,-167.4972,-121.99089)" />
<polygon
   style="fill:#ffffff"
   points="298.379,152.439 272.516,172.678 306.443,165.812 330.487,145.936 "
   id="polygon100"
   transform="matrix(1.6871406,0,0,1.6871406,-167.4972,-121.99089)" />
<polygon
   style="fill:#2f8442"
   points="306.656,165.711 338.218,321.563 374.21,286.372 343.494,134.703 "
   id="polygon102"
   transform="matrix(1.6871406,0,0,1.6871406,-167.4972,-121.99089)" />
<g
   id="g110"
   transform="matrix(1.6871406,0,0,1.6871406,-167.4972,-121.99089)">
	
		<rect
   x="219.942"
   y="224.815"
   transform="matrix(0.1985,0.9801,-0.9801,0.1985,483.3493,-94.4956)"
   style="fill:#6cc077"
   width="159.017"
   height="46.929001"
   id="rect104" />
	<polygon
   style="fill:#6cc077"
   points="342.382,135.025 302.952,166.463 306.626,165.678 343.632,134.677 "
   id="polygon106" />
	<polygon
   style="fill:#6cc077"
   points="260.662,175.025 264.348,174.28 301.272,144.338 299.487,144.709 "
   id="polygon108" />
</g>
<g
   id="g116"
   transform="matrix(1.6871406,0,0,1.6871406,-167.4972,-121.99089)">
	<polygon
   style="fill:#e58e8f"
   points="302.776,151.511 301.316,144.331 300.583,144.948 301.99,151.672 "
   id="polygon112" />
	<polygon
   style="fill:#e58e8f"
   points="302.776,151.511 301.316,144.331 300.583,144.948 301.99,151.672 "
   id="polygon114" />
</g>
<polygon
   style="fill:#6cc077"
   points="302.776,151.511 301.316,144.331 300.583,144.948 301.99,151.672 "
   id="polygon118"
   transform="matrix(1.6871406,0,0,1.6871406,-167.4972,-121.99089)" />
<polygon
   style="fill:#48b15a"
   points="263.622,174.433 266.005,173.947 300.796,146.108 301.313,144.335 "
   id="polygon120"
   transform="matrix(1.6871406,0,0,1.6871406,-167.4972,-121.99089)" />
<g
   id="g128"
   transform="matrix(1.6871406,0,0,1.6871406,-167.4972,-121.99089)">
	<polygon
   style="fill:#dddddc"
   points="277.762,171.578 300.31,152.136 302.918,151.609 280.045,171.114 "
   id="polygon122" />
	<polygon
   style="fill:#dddddc"
   points="286.847,169.737 309.391,150.295 312.007,149.771 289.126,169.277 "
   id="polygon124" />
	<polygon
   style="fill:#dddddc"
   points="296.265,167.829 318.809,148.394 321.417,147.859 298.544,167.369 "
   id="polygon126" />
</g>
<rect
   x="-305.354"
   y="-275.09811"
   transform="rotate(168.55073)"
   style="fill:#2f8442;stroke-width:1.68714"
   width="66.537392"
   height="40.945175"
   id="rect130" />
<rect
   x="-299.90121"
   y="-269.97195"
   transform="rotate(168.55073)"
   style="fill:#ffffff;stroke-width:1.68714"
   width="55.591236"
   height="30.712681"
   id="rect132" />
<g
   id="g138"
   transform="matrix(1.6871406,0,0,1.6871406,-167.4972,-121.99089)">
	<circle
   style="fill:#2f8442"
   cx="295.86099"
   cy="234.75101"
   r="12.135"
   id="circle134" />
	<circle
   style="fill:#2f8442"
   cx="306.00101"
   cy="284.97198"
   r="12.135"
   id="circle136" />
</g>
</svg>
