<?xml version="1.0" encoding="UTF-8" standalone="no"?>
<svg
   height="16"
   width="16"
   version="1.1"
   id="svg12"
   sodipodi:docname="unfloat_new.svg"
   inkscape:version="1.2.2 (732a01da63, 2022-12-09)"
   xmlns:inkscape="http://www.inkscape.org/namespaces/inkscape"
   xmlns:sodipodi="http://sodipodi.sourceforge.net/DTD/sodipodi-0.dtd"
   xmlns="http://www.w3.org/2000/svg"
   xmlns:svg="http://www.w3.org/2000/svg">
  <defs
     id="defs16" />
  <sodipodi:namedview
     id="namedview14"
     pagecolor="#ffffff"
     bordercolor="#000000"
     borderopacity="0.25"
     inkscape:showpageshadow="2"
     inkscape:pageopacity="0.0"
     inkscape:pagecheckerboard="0"
     inkscape:deskcolor="#d1d1d1"
     showgrid="false"
     inkscape:zoom="13.887309"
     inkscape:cx="6.7327659"
     inkscape:cy="7.9929092"
     inkscape:window-width="1920"
     inkscape:window-height="1011"
     inkscape:window-x="-8"
     inkscape:window-y="-8"
     inkscape:window-maximized="1"
     inkscape:current-layer="svg12" />
  <path
     d="M 9.4207475,2.0759125 H 13.621873 V 6.2770379 H 9.4207475 Z"
     fill="#eeeeec"
     stroke="#888a85"
     stroke-linecap="round"
     stroke-linejoin="round"
     stroke-width="0.382033"
     id="path2"
     style="stroke:#4f514d;stroke-width:0.682;stroke-dasharray:none;stroke-opacity:1" />
  <path
     d="M 9.4207478,7.6205431 H 13.621873 V 11.821669 H 9.4207478 Z"
     fill="#eeeeec"
     stroke="#888a85"
     stroke-linecap="round"
     stroke-linejoin="round"
     stroke-width="0.382033"
     id="path2-8"
     style="stroke:#4f514d;stroke-width:0.682;stroke-dasharray:none;stroke-opacity:1" />
  <path
     d="M 3.9481253,7.6205431 H 8.1492504 V 11.821669 H 3.9481253 Z"
     fill="#eeeeec"
     stroke="#888a85"
     stroke-linecap="round"
     stroke-linejoin="round"
     stroke-width="0.382033"
     id="path2-89"
     style="stroke:#4f514d;stroke-width:0.682;stroke-dasharray:none;stroke-opacity:1" />
  <path
     d="M 3.9481253,2.0759125 H 8.1492504 V 6.2770379 H 3.9481253 Z"
     fill="#eeeeec"
     stroke="#888a85"
     stroke-linecap="round"
     stroke-linejoin="round"
     stroke-width="0.382033"
     id="path2-6"
     style="stroke:#4f514d;stroke-width:0.682;stroke-dasharray:none;stroke-opacity:1" />
  <g
     transform="matrix(-0.59995359,0,0,0.59995359,13.752179,-614.80802)"
     id="g963">
    <path
       d="m 9.499986,1031.8622 -6,7.5 6,7.5 v -5 h 5 c 2.693494,2.6067 0.970927,5 -2,5 v 2 c 3.407831,0 8,-1.3157 8,-7.5 0,-2.1042 -1.725463,-4.5 -6,-4.5 h -5 z"
       fill="#e37e39"
       fill-rule="evenodd"
       id="path957" />
    <path
       d="m 3.64389,1039.4245 5.3554685,7.2774 v -2.25 l -4.9999998,-6.25 z m 6.3554747,1.2774 v 1 h 4.0000003 c 1.349775,1.3063 1.588697,2.5576 1.11914,3.4824 1.462016,-0.8405 1.822867,-2.603 -0.11914,-4.4824 z m 8.5410153,5.3593 c -1.610492,1.2625 -3.738184,1.6407 -5.541015,1.6407 v -1.1016 c -0.312828,0.064 -0.646484,0.1016 -1,0.1016 v 2 c 2.210076,0 4.910324,-0.5648 6.541015,-2.6407 z"
       fill="#f2c990"
       fill-rule="evenodd"
       id="path959" />
    <path
       d="m 9.499986,1031.8622 -6,7.5 6,7.5 v -5 h 5 c 2.693494,2.6067 0.970927,5 -2,5 v 2 c 3.407831,0 8,-1.3157 8,-7.5 0,-2.1042 -1.725463,-4.5 -6,-4.5 h -5 z"
       fill="none"
       stroke="#d06935"
       stroke-linejoin="round"
       id="path961" />
  </g>
</svg>
