<?xml version="1.0" encoding="UTF-8" standalone="no"?>
<!-- Uploaded to: SVG Repo, www.svgrepo.com, Generator: SVG Repo Mixer Tools -->

<svg
   fill="#000000"
   width="800px"
   height="800px"
   viewBox="0 0 56 56"
   version="1.1"
   id="svg4"
   sodipodi:docname="gst_all.svg"
   inkscape:version="1.2.2 (732a01da63, 2022-12-09)"
   xmlns:inkscape="http://www.inkscape.org/namespaces/inkscape"
   xmlns:sodipodi="http://sodipodi.sourceforge.net/DTD/sodipodi-0.dtd"
   xmlns="http://www.w3.org/2000/svg"
   xmlns:svg="http://www.w3.org/2000/svg">
  <defs
     id="defs8" />
  <sodipodi:namedview
     id="namedview6"
     pagecolor="#505050"
     bordercolor="#eeeeee"
     borderopacity="1"
     inkscape:showpageshadow="0"
     inkscape:pageopacity="0"
     inkscape:pagecheckerboard="0"
     inkscape:deskcolor="#505050"
     showgrid="false"
     inkscape:zoom="0.55"
     inkscape:cx="810"
     inkscape:cy="349.09091"
     inkscape:window-width="1920"
     inkscape:window-height="1027"
     inkscape:window-x="-8"
     inkscape:window-y="-8"
     inkscape:window-maximized="1"
     inkscape:current-layer="svg4" />
  <path
     style="fill:none;stroke:#000000;stroke-width:0.81572395;stroke-linecap:round;stroke-linejoin:round;stroke-miterlimit:0;stroke-dasharray:none"
     d="M 0.99693775,44.712737 C 14.202241,36.396035 30.541006,34.297428 30.541006,34.297428 c 0,0 6.266923,-1.321346 10.743296,-0.699536 4.476375,0.62181 14.100578,3.419952 14.100578,3.419952"
     id="path300" />
  <path
     style="fill:none;stroke:#000000;stroke-width:0.81572395;stroke-linecap:round;stroke-linejoin:round;stroke-miterlimit:0;stroke-dasharray:none"
     d="m 17.335704,37.639654 c 10.631387,8.627606 18.68886,9.871225 18.68886,9.871225 l 13.988669,4.819023"
     id="path910" />
  <path
     style="fill:none;stroke:#000000;stroke-width:0.78414;stroke-linecap:round;stroke-linejoin:round;stroke-miterlimit:0;stroke-dasharray:none"
     d="M 5.7272727,51.8 C 29.781818,52.054545 31.563636,53.709091 40.090909,50.272727 48.618181,46.836364 55.109091,37.163636 55.109091,37.163636"
     id="path966" />
  <path
     style="fill:none;stroke:#000000;stroke-width:0.78414;stroke-linecap:round;stroke-linejoin:round;stroke-miterlimit:0;stroke-dasharray:none"
     d="m 5.9818182,42.636364 c 2.5454544,3.181818 3.9454544,3.818181 4.5818178,6.109091 0.636364,2.290909 1.4,4.963636 1.654546,5.854545"
     id="path968" />
  <g
     id="g209"
     transform="matrix(0.07,0,0,0.07,15.043636,5.1163636)"
     style="fill:#c60000;fill-opacity:1">
	<path
   d="M 256,0 C 149.8,0 64,85.8 64,192 64,320 256,512 256,512 256,512 448,320 448,192 448,85.8 362.3,0 256,0 Z m 0,64 c 71,0 128,57.6 128,128 0,71 -57,128 -128,128 -70.4,0 -128,-57 -128,-128 0,-70.4 57.6,-128 128,-128 z"
   id="path207"
   style="fill:#c60000;fill-opacity:1" />

</g>
</svg>
