<?xml version="1.0" encoding="UTF-8" standalone="no"?>
<svg
   enable-background="new 0 0 24 24"
   height="24"
   viewBox="0 0 24 24"
   width="24"
   version="1.1"
   id="svg1653"
   sodipodi:docname="mActionDeselectAllRows.svg"
   inkscape:version="1.2.2 (732a01da63, 2022-12-09)"
   xmlns:inkscape="http://www.inkscape.org/namespaces/inkscape"
   xmlns:sodipodi="http://sodipodi.sourceforge.net/DTD/sodipodi-0.dtd"
   xmlns="http://www.w3.org/2000/svg"
   xmlns:svg="http://www.w3.org/2000/svg">
  <defs
     id="defs1657" />
  <sodipodi:namedview
     id="namedview1655"
     pagecolor="#505050"
     bordercolor="#eeeeee"
     borderopacity="1"
     inkscape:showpageshadow="0"
     inkscape:pageopacity="0"
     inkscape:pagecheckerboard="0"
     inkscape:deskcolor="#505050"
     showgrid="false"
     inkscape:zoom="26.87"
     inkscape:cx="11.406773"
     inkscape:cy="12.13249"
     inkscape:window-width="1920"
     inkscape:window-height="1027"
     inkscape:window-x="1912"
     inkscape:window-y="-8"
     inkscape:window-maximized="1"
     inkscape:current-layer="svg1653" />
  <path
     d="M 2.1881929,2.5852483 H 21.811807 V 7.5017549 H 2.1881929 Z"
     overflow="visible"
     stroke-width="1.07692"
     id="path4"
     style="fill:#83c8fb;fill-opacity:1;stroke:#01385f;stroke-width:0.2;stroke-linecap:round;stroke-linejoin:round;stroke-dasharray:none;stroke-opacity:1" />
  <path
     d="M 2.188193,9.4605946 H 21.811807 V 14.377101 H 2.188193 Z"
     overflow="visible"
     stroke-width="1.07692"
     id="path4-2"
     style="fill:#83c8fb;fill-opacity:1;stroke:#01385f;stroke-width:0.2;stroke-linecap:round;stroke-linejoin:round;stroke-dasharray:none;stroke-opacity:1" />
  <path
     d="M 2.1881932,16.335941 H 21.811807 v 4.916507 H 2.1881932 Z"
     overflow="visible"
     stroke-width="1.07692"
     id="path4-29"
     style="fill:#83c8fb;fill-opacity:1;stroke:#01385f;stroke-width:0.2;stroke-linecap:round;stroke-linejoin:round;stroke-dasharray:none;stroke-opacity:1" />
  <g
     id="g1649">
    <path
       d="m 14.357,13.5 h 8.285 c 0.474,0 0.857,0.384 0.857,0.857 v 8.285 c 0,0.474 -0.384,0.857 -0.857,0.857 h -8.285 c -0.474,0 -0.857,-0.384 -0.857,-0.857 v -8.285 c 0,-0.473 0.384,-0.857 0.857,-0.857 z"
       fill="#cc0000"
       opacity="0.9"
       stroke="#cc0000"
       stroke-linecap="square"
       stroke-linejoin="round"
       id="path1641" />
    <path
       d="m 13.5,18.5 h 10 v -3.334 c 0,-1.666 0,-1.666 -2.5,-1.666 -0.582,0 -5.061,0 -5.834,0 -1.666,0 -1.666,0 -1.666,1.666 0,0.834 0,1.668 0,3.334 z"
       fill="#fcffff"
       opacity="0.5"
       id="path1643" />
    <path
       d="m 16.373,20.65 4.254,-4.301"
       fill="none"
       stroke="#eeeeec"
       stroke-linecap="round"
       stroke-width="1.5"
       id="path1645" />
    <circle
       cx="18.5"
       cy="18.5"
       fill="none"
       r="4.15625"
       stroke="#eeeeec"
       stroke-linecap="round"
       stroke-width="1.6875"
       id="circle1647" />
  </g>
</svg>
